<?xml version="1.0" encoding="utf-8"?>
<!-- Generator: Adobe Illustrator 27.4.1, SVG Export Plug-In . SVG Version: 6.00 Build 0)  -->
<svg version="1.1" id="Layer_1" xmlns="http://www.w3.org/2000/svg" xmlns:xlink="http://www.w3.org/1999/xlink" x="0px" y="0px"
	 viewBox="0 0 611.73 86.21" style="enable-background:new 0 0 611.73 86.21;" xml:space="preserve">
<path d="M43.05,85.69C19.55,85.68,0.42,66.6,0.41,43.16c0-11.4,4.43-22.11,12.48-30.16C20.94,4.95,31.65,0.52,43.05,0.52
	c23.44,0.01,42.52,19.14,42.53,42.64C85.56,66.59,66.49,85.67,43.05,85.69L43.05,85.69z M43.05,18.91
	c-6.43,0.01-12.03,2.33-16.2,6.72c-4.22,4.46-6.45,10.52-6.46,17.53c0,6.82,2.3,12.99,6.46,17.39c4.18,4.41,9.78,6.74,16.2,6.75
	c6.38-0.01,11.95-2.33,16.1-6.71c4.21-4.45,6.44-10.48,6.44-17.43c0-6.86-2.29-13.07-6.44-17.49
	C54.98,21.25,49.42,18.91,43.05,18.91L43.05,18.91z M567.17,84.66V49.8L543.64,1.67h21.66l10.33,25.05
	c0.08,0.17,0.16,0.35,0.24,0.52l0.96,2.16l0.96-2.16c0.09-0.19,0.17-0.39,0.27-0.58l11.49-24.99h21.79l-24.84,48.26v34.73H567.17z
	 M534.22,84.66l-7.12-18.88h-29.98L490,84.66h-19.2l31.32-82.99h19.99l31.32,82.99H534.22z M503.24,49.56h17.74l-8.87-23.5
	L503.24,49.56z M434.52,84.66l-7.05-18.23c-0.05-0.14-0.11-0.28-0.16-0.42l-0.98-2.64l-0.98,2.64c-0.05,0.14-0.11,0.29-0.17,0.44
	l-7.04,18.22h-17.3L368.95,1.67h19.28l21.17,55.12c0.01,0.03,0.02,0.07,0.04,0.1l1,2.75c0,0,0.99-2.76,1-2.78l5.14-13.12
	L400.33,1.67h18.37l7.62,21.23l7.62-21.23h18.37l-16.23,42.07c0,0,5.17,13.19,5.18,13.22l0.98,2.33l0.95-2.34
	c0.03-0.06,0.05-0.13,0.07-0.19l21.15-55.08h19.28l-31.89,82.99H434.52z M301.37,84.66v-83h19.3v27.51h9.75l11.19-27.51h21.21
	L348.7,34.01l0.66,0.5c6.49,4.88,10.05,12.82,10.01,22.35c0.01,8.31-2.56,15.31-7.43,20.25c-4.86,4.94-11.72,7.56-19.86,7.56H301.37
	z M320.68,66.73h8.84c3.56,0,6.43-0.89,8.3-2.57c1.88-1.71,2.8-4.09,2.82-7.29c-0.02-3.18-0.95-5.54-2.85-7.23
	c-1.88-1.66-4.74-2.53-8.28-2.54h-8.85V66.73z M233.99,84.66v-83h51.72v17.59h-32.42v15.44H276v16.95h-22.72v15.44h32.42v17.58
	H233.99z M88.76,84.66V66.5h18.13l0-64.84h19.53V66.5h18.13v18.16H88.76z M198.8,84.66V52.24h-21.11v32.42h-19.53V1.67h19.53v32.42
	h21.11l0-32.42h19.53v82.99H198.8z"/>
</svg>
